<svg xmlns="http://www.w3.org/2000/svg" width="256" height="254" viewBox="0 0 256 254">
<!-- SVG created with Arrow, by QuiverAI (https://quiver.ai) -->
  <path d="m255.5 0h-255.3v253.4h255.3v-253.4z" fill="#A8F0B9"/>
  <path d="m239.7 147.4-0.49-1.36-1.44-2.7-2.92-3.15-4.11-2.7-8.56-2.55-0.36-2.18 1.1-4.95 0.36-2.98-0.24-7.74-2.78-8.98-2.19-4.46-3.03-4.22-4.35-3.15-4.47-4.46-6.07-3.27-6.06-1.25-4.83-0.58h-6.18l-2.92-0.48-4.35 1.06-5.07 0.34-7.72 1.94-10.67 4.83-10.31 7.11-3.6 1.48 0.36-1.48 7.48-8.28 9.42-8.16 5.32-4.34 17.47-13.94 10.29-9.88 0.97-2.06v-4.45l-2.42-5.47-3.39-3.74-8.07-4.33h-5.13l-7.24-0.24-7.6 1.94-5.13 2.63-6.66 5.47-11.9 13.04-16.19 21.61-3.27 7.35-4.47 7.75-1.56 9.21-0.48 0.46 0.49-5.95 2.07-7.37 4.95-10 7.02-10.5 13.27-18.11 3.27-7v-6.54l-2.07-4.21-5.07-4.95-3.98 0.34-8.08 0.6-5.44 3.07-7.72 6.77-7.84 9.2-4.95 7.63-5.7 14.8-0.97 0.71-2.54-18.38-2.06-4.1-4.11-4.46-2.66-0.6-4.83-0.24-2.42 2.79-3.15 2.43-2.8 6.05v15.34l0.24 1.7-0.48 4.82 0.6 3.86-0.24 4.96 0.72 6.42 0.37 2.06-0.37 2.44v18.66l0.37 2.79v5.35l0.59 3.74v3.51l0.6 2.32v3.74l0.48 1.24v6.88l0.6 2.21v3.07l0.96 1.6v4.21l0.73 0.82v4.7l0.72 1.7v4.96l0.6 3.07v5.34l0.6 2.98v6.19l0.6 3.39v7.12l0.96 10.74 0.6 2.98v6.31l0.6 1.82v6.05l0.72 4.58v2.63l0.72 2.98v9.76l0.24 6.28h8.2l1.1-2.19-0.6-1.94 1.07-1.59-0.72-1.37 0.72-1.94-1.17-1.24 0.6-2.43-1.56-1.48 0.48-2.43-1.32-2.55 0.72-2.19-1.16-2.32 0.48-1.94-1.07-2.32 0.36-2.19-0.86-2.32 0.24-2.18-1.32-2.98 0.48-1.82-2.06-5.95 0.6-2.86-0.96-1.82 0.96-2.32-1.44-1.82 0.72-2.43-1.82-1.82 0.86-2.43-1.69-2.53 1.35-2.55-1.55-1.82 0.72-2.98-1.68-2.43 1.68-3.07-1.68-2.06 1.68-1.94-1.68-2.19 1.68-2.18-1.68-1.82 0.96-2.44-1.68-2.18v-3.51l-1.28-2.19 0.58-2.43-1.16-1.94 0.96-2.18-1.56-1.6 0.86-2.44-1.44-1.82 0.96-2.43-1.44-1.94 0.96-2.43-1.56-1.6 1.08-2.43-1.45-1.94 1.33-2.32-0.96-1.94 1.34-2.06-1.16-1.82 1.16-1.94-1.16-1.94 1.44-1.94-1.34-1.94 1.34-1.94-1.82-1.82 2.06-2.43-1.82-2.18 2.06-2.44-1.66-2.44 1.94-2.28-1.56-1.82 1.34-1.94-2.06-2.18 1.08-2.43-1.34-2.44 1.78-2.06-1.44-2.43 1.78-2.06-1.78-2.43 0.84-1.94-0.5-3.18 1.94-2.43 1.66 1.25 1.56 1.18 2.07-1.94-0.72-3.86 1.44-2.07-1.44-3.15 0.48-8.74 1.56-0.33 1.78 2.06 0.36 10.28 1.79 3.07 0.36 4.82 1.44 1.94 0.6 3.47-0.96 1.94 0.96 2.43v4.7l0.6 2.44v4.21l0.72 2.32v9.76l-0.72 1.48 1.56 2.43 1.44 0.34 5.07-5.47-0.6-3.85 0.96-1.94-0.72-2.85 0.48-2.44-0.6-3.07 1.06-2.43-0.86-2.98 1.68-2.43-1.44-3.15 1.44-2.98 0.24-4.01 1.94-3.86 0.24-2.98 2.07-1.94-0.48-2.43 2.05-2.43-0.36-1.94 2.67-4.33 1.68-1.16 0.96-3.51 3.47-1.94 1.8 2.32 3.15 0.7 1.8 1.94 3.47 0.47 2.43 2.19 0.24 1.47-3.03 3.51-1.06-1.16-3.35 5.09-1.57-0.82-1.94 1.94 0.96 2.87-1.94 1.82-1.97-1.48-1.94 1.94 0.96 3.52-1.92 1.94-2.06-1.82-1.94 2.43 0.86 2.98 2.54 0.34 1.56 2.98-1.56 2.98-2.54-0.46-0.97 1.94 1.93 0.95 0.46 3.86-2.43 1.94-0.48 2.98-2.92-0.48-1.94 1.94 0.86 2.98 1.94 1.82 1.94-0.96 1.53 2.98-0.46 2.98 2.06 1.94 0.96 4.46 3.47 2.62 3.46 0.24 4.11-5.82 0.96-0.48-0.48-2.43 3.59-4.96-0.26-2.97 2.29-2.54 0.64-3.15 2.77-0.95 1.94 1.47 2.43-1.47-1.44-2.96 1.56-2.98-1.94-2.06 0.6-2.55 3.04-2.98-0.24-2.44 2.42-1.59v-1.94l2.53-1.94-0.36-2.44 2.42-1.94-0.6-3.29 11.3-13.31 2.42 0.34 2.43 2.43-0.48 1.48 2.92 0.96 0.34 1.95 2.93-0.72 3.05-3.07 1.94 0.82 2.92-2.32 1.94 0.96 3.47-1.46 1.56-2.44 2.92 0.48 2.93-4.04-0.12-0.48 1.94-0.48 2.06 1.47 0.24 2.44-1.8 2.54-1.94-0.48-1.44 3.07-2.43-1.06-2.42 2.88-1.94-0.96-1.94 2.43 1.46 1.48-1.44 1.6-3.96-2.64-2.92 2.54 0.96 1.94-5.32 4.82-1.44-1.47-1.93 1.35 1.45 1.94-3.47 3.63-2.43-1.94-1.94 2.43 1.44 2.44-2.53 2.53-2.43-1.46-2.42 3.58-1.94-1.06-1.94 1.94 1.46 2.43-2.54 1.48-2.42-1.48-1.93 1.94 0.6 2.63-2.54 0.48-1.44 2.07-1.56-1.06-2.07 2.07 1.57 2.44-1.93 1.94-1.56-0.96-1.45 1.48 0.97 2.32 2.54-0.34 1.45 1.94-0.96 2.43-1.93-0.86-1.56 1.48 0.48 2.19 1.94 0.6 2.07-2.43 0.48 2.43-4.11 7.35-2.93 3.86-0.86 3.07-2.93 2.55-0.86 3.46 1.56 4.11 1.57 0.61 2.92-1.47 5.58-7.23 5.08-6.44 4.95-4.46 2.54-4.45 4.46-2.06 3.98-3.37 2.54 0.48 3.98-3.45 2.42 0.58 3.98-2.98 2.92 0.34 3.97-2.98 2.43 0.48 3.98-2.54 2.93 0.49 3.46-1.94 3.47 1.06 3.97-0.96 3.47 0.96 4.95 3.47 1.94-0.48 2.92 0.96 1.94 2.98 1.94 0.6 3.97 6.06-1.44 2.32-3.47 0.46-2.54 2.43-4.84-1.48-1.44 2.86 0.96 2.06 4.46 4 0.36 3.35-1.34 1.94-10.67-13.93-1.25-1.59-1.44 1.37-1.45-1.72-1.94 2.44 1.8 2.65 2.53-0.47 0.72 3.08 9.3 10.6 2.78 1.36 0.96 3.45 2.92 4.96-0.96 0.96-4.95-3.96-0.97-4.46-8.82-9.2-8.44-3.47-5.95-0.96-9.82 1.84-6.78 3.37-11.18 9.88-3.44 4.96-4.46 8.74-1.44 5.47v6.42l0.86 2.86v3.86l8.07 9.65 11.29 5.47 12.88 0.58 2.92-2.07 2.42 0.6 11.29-7.35 3.47-1.24 6.95-7 2.44-0.96 11.28-14.95 2.42-0.96 2.43 2.44 1.94-0.96 0.48-3.46 2.42-0.48 1.44 2.44 2.54 1.48-2.92 3.97-2.94 1.47-1.44-2.98-2.42 0.95-0.97 2.98-2.42-0.95-2.43 2.98 0.58 2.55-1.56-1.48-2.42 1.94 0.48 2.44 1.94 0.96 2.42-1.94 0.97 2.98-1.95 2.5 1.33 2 2.54-1 6.67 5.47-0.49 3.86-4.47 3.86-1.93-0.96-3.47 3.46-1.94-0.96-3.47 3.47-1.94-1.45-4.46 4.96-1.46-1.46-3.47 5.47-3.46 1.48-2.43-1.46-2.43 2.43-2.92 0.46-1.93-2.97-4.47 3.86-1.94-1.47-1.94 2.43-1.94-1.48-2.92 2.44-2.92-0.48-0.96-1.06-2.43 1.6-5.94 0.24-1.56 0.59-2.93-0.61-4.47 0.71-1.93-0.48-4.96 1.82-2.44-0.96-3.47 3.47 1.27 2.97-0.36 2.44 0.72 1.94-0.48 2.43 0.72 1.94-0.72 2.98v6.88l0.6 3.47v5.34l-0.86 2.44 0.72 2.98v7.12l-0.6 2.33v5.78h6.06v-12.76l-0.6-2.98v-20.12l0.72-2.98v-9.33l1.06-0.82 10.79 2.19 11.77-0.61 4.59-1.24 7.49-0.6 6.78-2.44 4.09-0.96 10.54-4.21 6.06-3.07 10.66-8.28 11.29-10.5 6.97-9.2 4.36-8.85v-7.91l1.56-0.6 2.92 0.24-0.07-0.96zm-170.6-82.22v-2.55l1.08-2.98 0.24 5.07-1.32 0.46zm144.6 68.54-9.42-17.49 8.57-3.16 1.83-0.6 1.56 7.35-0.48 6.42-2.06 7.48zm18.83 18.08-6.42 17.49-7.96-8.26 14.74-13.03-0.36 3.8z" fill="#08A26A"/>
  <path d="m157.4 137.2c-3.67 0-5.01 2.18-5.01 3.66 0 1.94 2.06 4 5.01 4 3.35 0 5.42-2.44 5.42-4 0-1.6-2.43-3.66-5.42-3.66z" fill="#A8F0B9"/>
  <path d="m177.3 137.2c-3.35 0-4.91 2.43-4.91 3.66 0 1.94 2.06 3.88 4.91 3.88 3.06 0 5.13-2.44 5.13-3.88 0-1.23-2.07-3.66-5.13-3.66z" fill="#A8F0B9"/>
  <path d="m166.1 150.4c-7.13 0-12.84 3.97-13.08 5.33-0.36 1.31 0.24 2.37 1.2 2.61 0.85 0.24 1.57-0.12 2.17-0.6 0.72-0.6 4.81-3.03 9.65-3.03 6.97 0 11.98 6.05 12.84 7.99 0.48 0.96 1.56 1.44 2.53 0.96 0.96-0.48 1.44-1.54 0.96-2.9-1.28-3.16-7.07-10.36-16.27-10.36z" fill="#A8F0B9"/>
</svg>